HIERARCHY
ROOT Hips
{
	OFFSET -3.958830 18.904000 13.208200
	CHANNELS 6 Xposition Yposition Zposition Zrotation Yrotation Xrotation 
	JOINT LHipJoint
	{
		OFFSET 0.000000 0.000000 0.000000
		CHANNELS 3 Zrotation Yrotation Xrotation
		JOINT LeftUpLeg
		{
			OFFSET 1.800000 -1.400000 0.085000
			CHANNELS 3 Zrotation Yrotation Xrotation
			JOINT LeftLeg
			{
				OFFSET 2.215000 -6.000000 0.000000
				CHANNELS 3 Zrotation Yrotation Xrotation
				JOINT LeftFoot
				{
					OFFSET 2.500000 -6.900000 0.000000
					CHANNELS 3 Zrotation Yrotation Xrotation
					JOINT LeftToeBase
					{
						OFFSET 0.200000 -0.500000 1.950000
						CHANNELS 3 Zrotation Yrotation Xrotation
						End Site
						{
							OFFSET 0.000000 0.000000 0.000000
						}
					}
				}
			}
		}
	}
	JOINT RHipJoint
	{
		OFFSET 0.000000 0.000000 0.000000
		CHANNELS 3 Zrotation Yrotation Xrotation
		JOINT RightUpLeg
		{
			OFFSET -1.800000 -1.400000 0.085000
			CHANNELS 3 Zrotation Yrotation Xrotation
			JOINT RightLeg
			{
				OFFSET -2.215000 -6.000000 0.000000
				CHANNELS 3 Zrotation Yrotation Xrotation
				JOINT RightFoot
				{
					OFFSET -2.500000 -6.900000 0.000000
					CHANNELS 3 Zrotation Yrotation Xrotation
					JOINT RightToeBase
					{
						OFFSET -0.200000 -0.500000 1.950000
						CHANNELS 3 Zrotation Yrotation Xrotation
						End Site
						{
							OFFSET 0.000000 0.000000 0.000000
						}
					}
				}
			}
		}
	}
	JOINT LowerBack
	{
		OFFSET 0.000000 0.000000 0.000000
		CHANNELS 3 Zrotation Yrotation Xrotation
		JOINT Spine
		{
			OFFSET -0.087000 1.940000 -0.288900
			CHANNELS 3 Zrotation Yrotation Xrotation
			JOINT Spine1
			{
				OFFSET 0.000000 1.950000 0.060000
				CHANNELS 3 Zrotation Yrotation Xrotation
				JOINT Neck
				{
					OFFSET 0.000000 0.000000 0.000000
					CHANNELS 3 Zrotation Yrotation Xrotation
					JOINT Neck1
					{
						OFFSET 0.000000 1.600000 0.340000
						CHANNELS 3 Zrotation Yrotation Xrotation
						JOINT Head
						{
							OFFSET 0.000000 1.667000 -0.240000
							CHANNELS 3 Zrotation Yrotation Xrotation
							End Site
							{
								OFFSET 0.000000 0.000000 0.000000
							}
						}
					}
				}
				JOINT LeftShoulder
				{
					OFFSET 0.000000 0.000000 0.000000
					CHANNELS 3 Zrotation Yrotation Xrotation
					JOINT LeftArm
					{
						OFFSET 2.700000 1.550000 -0.730000
						CHANNELS 3 Zrotation Yrotation Xrotation
						JOINT LeftForeArm
						{
							OFFSET 5.450000 0.000000 0.000000
							CHANNELS 3 Zrotation Yrotation Xrotation
							JOINT LeftHand
							{
								OFFSET 3.450000 0.000000 0.000000
								CHANNELS 3 Zrotation Yrotation Xrotation
								JOINT LeftHandIndex1
								{
									OFFSET 0.750000 0.000000 0.000000
									CHANNELS 3 Zrotation Yrotation Xrotation
									End Site
									{
										OFFSET 0.000000 0.000000 0.000000
									}
								}
							}
						}
					}
				}
				JOINT RightShoulder
				{
					OFFSET 0.000000 0.000000 0.000000
					CHANNELS 3 Zrotation Yrotation Xrotation
					JOINT RightArm
					{
						OFFSET -2.700000 1.550000 -0.730000
						CHANNELS 3 Zrotation Yrotation Xrotation
						JOINT RightForeArm
						{
							OFFSET -5.450000 0.000000 0.000000
							CHANNELS 3 Zrotation Yrotation Xrotation
							JOINT RightHand
							{
								OFFSET -3.450000 0.000000 0.000000
								CHANNELS 3 Zrotation Yrotation Xrotation
								JOINT RightHandIndex1
								{
									OFFSET -0.750000 0.000000 0.000000
									CHANNELS 3 Zrotation Yrotation Xrotation
									End Site
									{
										OFFSET 0.000000 0.000000 0.000000
									}
								}
							}
						}
					}
				}
			}
		}
	}
}
MOTION
Frames: 4
Frame Time: 0.016667
-0.647700 18.115900 -4.055690 -9.399110 -1.501761 3.488266 -14.618276 12.824201 1.976423 5.055546 -0.520409 -11.435707 -1.186656 5.628770 20.194749 -0.040732 4.040290 3.348008 0.262760 0.004980 0.157710 18.911341 -10.852306 3.978916 4.498299 10.973928 -19.264058 1.492769 -13.545600 73.611038 -2.061163 -11.728601 0.677287 -0.037980 0.329370 0.228810 -5.276693 -0.020982 -7.542493 20.952160 0.797099 6.348139 -5.041504 1.646712 9.351828 2.184992 -4.646723 -12.858069 -10.609518 1.814812 38.191459 -1.843210 -1.645090 3.732000 -27.593810 -23.206456 7.913772 -58.703879 -12.262598 -0.884618 -5.434105 -17.843822 -0.763358 -3.730009 3.186523 0.105090 0.215160 -0.135140 0.239540 22.926329 27.614339 10.310614 54.004981 11.767196 1.544957 -0.522814 1.630850 0.319426 2.588099 -1.584410 -0.007060 0.040950 -0.106520 0.008250 
-0.649780 18.079470 -4.112920 -9.428953 -2.214690 4.485201 -14.654352 12.814777 2.078561 5.738910 -0.724952 -11.787223 -3.057602 5.948124 18.919425 -0.090182 4.110574 3.320729 0.245780 -0.017250 0.170680 18.871398 -10.844441 3.868480 4.390150 10.152694 -21.638612 1.507609 -11.496494 66.022027 -1.655965 -10.368766 1.023403 -0.024080 0.352610 0.239580 -5.159634 -0.068513 -7.466897 20.456014 0.533055 6.416501 -4.184161 1.243439 9.362989 2.048325 -4.233604 -12.044132 -9.395456 1.763349 36.096295 -2.649330 -0.524040 3.052860 -26.612416 -21.886475 7.355025 -59.781634 -13.706512 -0.963021 -5.761656 -20.849897 -0.929146 -3.794757 3.177002 0.092270 0.256290 -0.162430 0.212030 22.221558 25.719534 9.592254 54.100466 11.366055 0.905332 -0.760665 3.190121 0.039416 2.545032 -1.581831 -0.033530 0.048650 -0.077900 -0.016270 
-0.656040 18.066400 -4.162840 -9.178944 -2.014910 5.947636 -14.739026 12.734678 2.095047 5.690517 -1.043559 -12.992390 -3.617064 5.811966 17.729090 -0.161384 4.053296 3.366495 0.192240 -0.076180 0.118140 18.827215 -10.587721 3.953767 3.315258 10.385105 -26.099516 2.731321 -12.460900 65.129723 -1.564503 -10.382570 1.002064 -0.015000 0.441810 0.249490 -4.984508 -0.341485 -7.459259 19.210269 -0.261513 6.455871 -3.098164 0.329758 8.646014 1.551477 -3.788068 -10.806799 -8.095328 1.751659 33.086281 -3.114770 0.293550 3.841270 -25.137171 -19.406764 6.408672 -60.694483 -15.052146 -0.878901 -7.298002 -24.366724 -0.793449 -3.901755 3.191879 0.041670 0.341770 -0.241780 0.211630 21.717351 22.412956 8.244661 54.137986 11.033544 0.179937 -0.407158 5.401876 -0.350024 2.489374 -1.600730 -0.082300 0.061700 -0.034160 -0.019440 
-0.652190 18.080270 -4.208100 -8.917383 -1.743889 7.144540 -14.807408 12.590630 2.115659 5.855202 -1.266760 -13.476414 -4.889542 5.760177 15.654231 -0.208808 3.940896 3.406802 0.223690 -0.043900 0.167850 18.810383 -10.216731 4.180676 2.276944 11.332961 -30.492141 4.038585 -14.498757 68.029135 -1.734447 -11.064421 0.797725 0.013830 0.421580 0.238840 -4.870204 -0.643951 -7.598121 18.796182 -1.054632 7.140629 -2.626389 -0.340973 7.913185 1.471911 -3.558247 -10.055210 -7.615749 1.950472 32.264852 -3.525030 1.143870 2.695750 -23.371009 -17.021889 5.711407 -61.683059 -15.863577 -1.232105 -9.350502 -29.101113 -0.428239 -3.898036 3.181545 0.062690 0.337520 -0.228000 0.206820 20.086762 19.559592 7.129411 54.883318 10.994442 -0.579897 0.483552 8.033432 -0.634440 2.453298 -1.577591 -0.097180 0.078700 -0.053090 -0.044950 
